<svg width="798" height="835" viewBox="0 0 798 835" fill="none" xmlns="http://www.w3.org/2000/svg">
<rect width="798" height="835" fill="#F5F5F5"/>
<g clip-path="url(#clip0_0_1)">
<path d="M308.5 834.5C478.88 834.5 617 810.1 617 780C617 749.9 478.88 725.5 308.5 725.5C138.12 725.5 0 749.9 0 780C0 810.1 138.12 834.5 308.5 834.5Z" fill="#3F3D56"/>
<path d="M496 603C662.514 603 797.5 468.014 797.5 301.5C797.5 134.986 662.514 0 496 0C329.486 0 194.5 134.986 194.5 301.5C194.5 468.014 329.486 603 496 603Z" fill="#3F3D56"/>
<path d="M197.17 328.482C197.17 328.482 173.466 395.204 184.001 418.908C194.537 442.612 211.217 465.438 211.217 465.438C211.217 465.438 205.072 332.872 197.17 328.482Z" fill="#D0CDE1"/>
<path opacity="0.1" d="M197.17 328.482C197.17 328.482 173.466 395.204 184.001 418.908C194.537 442.612 211.217 465.438 211.217 465.438C211.217 465.438 205.072 332.872 197.17 328.482Z" fill="black"/>
<path d="M213.851 482.997C213.851 482.997 212.095 499.677 211.217 500.555C210.339 501.433 212.095 503.189 211.217 505.823C210.339 508.457 209.461 511.968 211.217 512.846C212.973 513.724 201.56 590.981 201.56 590.981C201.56 590.981 173.466 627.854 184.879 685.797L188.391 744.618C188.391 744.618 215.607 746.374 215.607 736.717C215.607 736.717 213.851 725.304 213.851 720.036C213.851 714.769 218.24 714.769 215.607 712.135C212.973 709.501 212.973 707.745 212.973 707.745C212.973 707.745 217.363 704.234 216.485 703.356C215.607 702.478 224.386 640.145 224.386 640.145C224.386 640.145 234.043 630.488 234.043 625.22V619.953C234.043 619.953 238.433 608.54 238.433 607.662C238.433 606.784 262.137 553.231 262.137 553.231L271.794 591.859L282.329 647.169C282.329 647.169 287.596 697.21 298.132 716.525C298.132 716.525 316.568 779.735 316.568 777.979C316.568 776.223 347.295 771.834 346.417 763.932C345.539 756.031 327.981 645.413 327.981 645.413L332.371 481.241L213.851 482.997Z" fill="#2F2E41"/>
<path d="M190.147 740.228C190.147 740.228 166.443 786.758 182.246 788.514C198.048 790.27 204.194 790.27 211.217 783.247C215.057 779.407 222.832 774.255 229.093 770.374C232.802 768.111 235.799 764.849 237.739 760.961C239.679 757.073 240.484 752.717 240.062 748.392C239.599 744.097 237.994 740.558 234.043 740.228C223.508 739.351 211.217 729.693 211.217 729.693L190.147 740.228Z" fill="#2F2E41"/>
<path d="M320.958 774.467C320.958 774.467 297.254 820.997 313.056 822.753C328.859 824.509 335.004 824.509 342.028 817.486C345.867 813.646 353.643 808.494 359.903 804.613C363.613 802.35 366.609 799.088 368.549 795.2C370.49 791.312 371.295 786.956 370.872 782.631C370.409 778.336 368.804 774.797 364.854 774.467C354.319 773.59 342.028 763.932 342.028 763.932L320.958 774.467Z" fill="#2F2E41"/>
<path d="M295.905 252.337C316.287 252.337 332.81 235.814 332.81 215.433C332.81 195.051 316.287 178.528 295.905 178.528C275.523 178.528 259 195.051 259 215.433C259 235.814 275.523 252.337 295.905 252.337Z" fill="#FFB8B8"/>
<path d="M272.18 227.558C272.18 227.558 245.82 276.062 243.711 276.062C241.602 276.062 291.16 291.878 291.16 291.878C291.16 291.878 304.867 245.483 306.976 241.266L272.18 227.558Z" fill="#FFB8B8"/>
<path d="M312.617 280.635C312.617 280.635 259.942 251.664 254.674 252.542C249.407 253.42 193.22 302.583 194.098 322.776C194.975 342.968 201.999 376.329 201.999 376.329C201.999 376.329 204.633 469.389 209.9 470.267C215.168 471.145 209.022 486.947 210.778 486.947C212.534 486.947 333.687 486.947 334.565 484.314C335.443 481.68 312.617 280.635 312.617 280.635Z" fill="#D0CDE1"/>
<path d="M342.028 489.142C342.028 489.142 358.708 540.062 344.661 538.306C330.615 536.55 324.469 494.41 324.469 494.41L342.028 489.142Z" fill="#FFB8B8"/>
<path d="M297.254 277.563C297.254 277.563 264.77 284.586 270.038 328.482C275.306 372.378 284.963 416.275 284.963 416.275L317.446 487.386L320.958 500.555L344.661 494.41L327.103 392.571C327.103 392.571 320.958 283.708 313.056 280.196C308.074 278.072 302.656 277.169 297.254 277.563V277.563Z" fill="#D0CDE1"/>
<path opacity="0.1" d="M277.5 414.958L317.885 486.947L283.86 411.09L277.5 414.958Z" fill="black"/>
<path d="M332.646 204.566L332.768 201.746L338.378 203.142C338.318 202.237 338.062 201.355 337.628 200.558C337.194 199.762 336.592 199.068 335.864 198.527L341.84 198.193C336.826 191.067 330.419 185.032 323.007 180.451C315.595 175.87 307.332 172.839 298.716 171.541C285.79 169.668 271.397 172.379 262.534 181.972C258.234 186.625 255.533 192.542 253.611 198.579C250.072 209.697 249.351 222.951 256.731 231.988C264.232 241.173 277.333 242.973 289.137 244.109C293.29 244.509 297.643 244.881 301.491 243.27C301.92 238.855 301.355 234.401 299.838 230.233C299.206 228.943 298.904 227.516 298.959 226.081C299.483 222.569 304.168 221.684 307.686 222.159C311.205 222.633 315.436 223.359 317.748 220.664C319.341 218.808 319.247 216.105 319.458 213.669C320.032 207.035 332.586 205.957 332.646 204.566Z" fill="#2F2E41"/>
<path d="M559 787.5C582.748 787.5 602 768.248 602 744.5C602 720.752 582.748 701.5 559 701.5C535.252 701.5 516 720.752 516 744.5C516 768.248 535.252 787.5 559 787.5Z" fill="#7DAD61"/>
<path d="M54 772.5C77.7482 772.5 97 753.248 97 729.5C97 705.752 77.7482 686.5 54 686.5C30.2518 686.5 11 705.752 11 729.5C11 753.248 30.2518 772.5 54 772.5Z" fill="#7DAD61"/>
<path d="M54 703.5C71.1208 703.5 85 689.621 85 672.5C85 655.379 71.1208 641.5 54 641.5C36.8792 641.5 23 655.379 23 672.5C23 689.621 36.8792 703.5 54 703.5Z" fill="#7DAD61"/>
<path d="M54 646.5C66.1503 646.5 76 636.65 76 624.5C76 612.35 66.1503 602.5 54 602.5C41.8497 602.5 32 612.35 32 624.5C32 636.65 41.8497 646.5 54 646.5Z" fill="#7DAD61"/>
<path d="M382.888 257.361L380.866 258.984C381.55 258.416 382.261 257.884 382.991 257.38C382.957 257.374 382.923 257.367 382.888 257.361Z" fill="#F2F2F2"/>
<path d="M426.917 292.542C426.76 292.075 426.494 291.652 426.14 291.308C426.01 291.186 425.868 291.076 425.718 290.979C424.519 290.171 422.722 289.981 421.573 290.955C421.457 291.054 421.35 291.163 421.253 291.281C420.91 291.698 420.557 292.105 420.195 292.504C419.601 293.173 418.994 293.819 418.358 294.446C418.178 294.62 417.997 294.799 417.811 294.972C417.705 295.078 417.598 295.178 417.492 295.279C417.084 295.664 416.667 296.034 416.245 296.4C416.023 296.597 415.8 296.789 415.573 296.977C415.235 297.256 414.897 297.535 414.554 297.804C414.522 297.827 414.489 297.85 414.457 297.877C414.448 297.882 414.443 297.891 414.434 297.896C414.429 297.896 414.425 297.896 414.42 297.905C414.407 297.91 414.396 297.918 414.388 297.928C414.286 297.996 414.216 298.042 414.165 298.083C414.184 298.074 414.202 298.06 414.221 298.051C414.138 298.115 414.05 298.179 413.966 298.243C413.156 298.832 412.328 299.399 411.481 299.928C409.386 301.251 407.187 302.401 404.905 303.367C404.753 303.426 404.596 303.49 404.439 303.549C398.466 305.953 391.997 306.868 385.59 306.214C384.936 306.16 384.282 306.087 383.627 305.996C382.872 305.881 382.121 305.743 381.375 305.587C378.535 305.004 375.758 304.15 373.082 303.035C369.735 301.481 366.555 299.593 363.589 297.4C363.13 297.071 362.666 296.741 362.202 296.421C362.74 295.125 363.268 293.83 363.782 292.525C364.04 291.895 364.287 291.266 364.531 290.632C366.444 285.748 368.243 280.817 369.967 275.868C371.711 270.854 373.358 265.81 374.908 260.737C375.067 260.222 375.222 259.707 375.373 259.192C376.186 256.512 376.966 253.826 377.715 251.134C377.785 250.871 377.86 250.614 377.927 250.352C378.143 249.58 378.355 248.807 378.562 248.035C379.033 246.292 378.003 244.2 376.17 243.771C375.288 243.54 374.351 243.66 373.555 244.105C372.76 244.551 372.169 245.287 371.906 246.16C371.704 246.904 371.501 247.645 371.294 248.389C370.301 251.989 369.257 255.577 368.163 259.151C368.003 259.666 367.843 260.181 367.684 260.696C365.27 268.483 362.624 276.19 359.747 283.817C359.401 284.741 359.05 285.661 358.694 286.579C358.521 287.029 358.348 287.479 358.17 287.93C357.828 288.816 357.478 289.703 357.127 290.59C356.926 291.109 356.72 291.628 356.514 292.143C356.378 292.469 356.248 292.795 356.117 293.117C354.805 292.638 353.445 292.303 352.061 292.118L351.839 292.089C350.766 291.954 349.68 291.957 348.607 292.098C347.003 292.276 345.456 292.804 344.078 293.644C342.7 294.484 341.523 295.617 340.632 296.961C338.413 300.407 338.412 305.352 341.48 308.308C344.639 311.351 349.448 311.355 353.198 309.484C355.185 308.424 356.865 306.87 358.073 304.971C358.536 304.283 358.962 303.571 359.349 302.837C359.445 302.902 359.542 302.967 359.638 303.037C360.005 303.297 360.373 303.561 360.735 303.821C362.849 305.369 365.077 306.753 367.402 307.962C372.4 310.479 377.786 312.139 383.335 312.874C383.459 312.888 383.579 312.907 383.703 312.922C384.316 313.003 384.934 313.067 385.551 313.121C394.409 313.838 403.292 312.077 411.204 308.035C411.875 307.694 412.539 307.335 413.198 306.96C414.22 306.376 415.219 305.756 416.196 305.098C416.728 304.742 417.246 304.381 417.76 304.002C420.006 302.37 422.101 300.54 424.02 298.535C424.748 297.779 425.445 296.999 426.112 296.194C426.742 295.536 427.108 294.669 427.14 293.759C427.139 293.343 427.063 292.931 426.917 292.542V292.542ZM350.514 303.077C350.611 303.009 350.708 302.936 350.801 302.862C350.773 302.931 350.639 303.009 350.514 303.077L350.514 303.077ZM352.002 301.598C351.895 301.717 351.798 301.837 351.691 301.956C351.367 302.315 351.018 302.651 350.648 302.963C350.597 303.009 350.542 303.054 350.486 303.096C350.485 303.095 350.485 303.096 350.484 303.096C350.484 303.096 350.483 303.096 350.483 303.097C350.482 303.097 350.482 303.098 350.482 303.098C350.482 303.099 350.481 303.099 350.481 303.1C350.415 303.129 350.35 303.163 350.287 303.2C350.088 303.319 349.885 303.428 349.677 303.528C349.27 303.675 348.851 303.789 348.425 303.867C348.099 303.889 347.771 303.89 347.443 303.87L347.434 303.87C347.209 303.819 346.986 303.756 346.767 303.682C346.656 303.626 346.551 303.561 346.445 303.496C346.404 303.459 346.367 303.422 346.344 303.399C346.299 303.358 346.258 303.313 346.221 303.265C346.221 303.264 346.22 303.263 346.22 303.263C346.22 303.262 346.22 303.262 346.219 303.261C346.219 303.261 346.218 303.261 346.218 303.26C346.217 303.26 346.217 303.26 346.216 303.26C346.166 303.168 346.111 303.075 346.061 302.983C346.058 302.981 346.057 302.977 346.056 302.974C346.02 302.858 345.988 302.738 345.961 302.619C345.953 302.408 345.955 302.198 345.97 301.988C346.033 301.694 346.118 301.405 346.223 301.124C346.318 300.924 346.425 300.731 346.545 300.545C346.554 300.527 346.601 300.453 346.652 300.371C346.657 300.366 346.656 300.366 346.657 300.362C346.726 300.284 346.796 300.201 346.87 300.128C346.995 299.991 347.13 299.872 347.264 299.748C347.525 299.58 347.795 299.426 348.073 299.288C348.514 299.134 348.967 299.015 349.426 298.931C350.103 298.882 350.784 298.892 351.459 298.961C352.099 299.076 352.729 299.235 353.347 299.437C352.968 300.162 352.537 300.858 352.058 301.52C352.039 301.548 352.021 301.575 352.002 301.598V301.598ZM346.884 300.054C346.843 300.119 346.795 300.179 346.74 300.233C346.777 300.165 346.826 300.105 346.884 300.054V300.054Z" fill="#F2F2F2"/>
<path d="M413.325 245.437C413.276 246.882 413.226 248.328 413.176 249.774C413.07 252.982 412.961 256.193 412.849 259.405C412.732 263.019 412.61 266.631 412.484 270.242C412.422 272.107 412.36 273.971 412.295 275.836C412.124 280.859 411.954 285.88 411.786 290.9C411.769 291.42 411.748 291.936 411.731 292.456C411.647 294.947 411.564 297.437 411.481 299.928C411.387 302.63 411.295 305.333 411.204 308.035C411.138 310.061 411.069 312.088 410.999 314.117C410.501 328.817 410.003 343.517 409.504 358.217C409.482 359.128 409.107 359.994 408.458 360.634C407.81 361.274 406.939 361.639 406.027 361.651C405.112 361.639 404.239 361.268 403.596 360.618C402.953 359.968 402.591 359.092 402.589 358.178C402.866 349.91 403.147 341.641 403.43 333.373C403.68 325.896 403.933 318.419 404.189 310.943C404.272 308.48 404.356 306.015 404.439 303.549C404.566 299.838 404.691 296.127 404.815 292.417C404.832 291.896 404.854 291.381 404.87 290.861C404.882 290.405 404.899 289.954 404.915 289.498C405.159 282.293 405.402 275.086 405.646 267.878C405.745 265.042 405.841 262.205 405.934 259.366C406.045 256.129 406.155 252.894 406.266 249.661C406.315 248.238 406.36 246.82 406.41 245.398C406.433 244.487 406.807 243.621 407.456 242.981C408.104 242.341 408.975 241.976 409.887 241.964C410.802 241.976 411.675 242.347 412.318 242.997C412.961 243.647 413.323 244.523 413.325 245.437V245.437Z" fill="#F2F2F2"/>
<path d="M602.998 247.471C599.294 261.163 594.884 274.654 589.785 287.891C588.378 291.542 586.939 295.185 585.403 298.785L585.756 297.962C585.069 299.676 584.196 301.31 583.151 302.833C583.08 302.931 583.008 303.029 582.934 303.125C583.295 302.67 583.364 302.58 583.14 302.855C583.022 302.993 582.906 303.131 582.784 303.265C582.459 303.624 582.111 303.961 581.741 304.274C581.648 304.352 581.554 304.429 581.458 304.505L581.892 304.171C581.841 304.289 581.488 304.444 581.378 304.51C581.022 304.723 580.65 304.908 580.266 305.065L581.094 304.722C580.465 304.971 579.81 305.146 579.14 305.245L580.06 305.127C579.403 305.214 578.737 305.217 578.079 305.137L578.997 305.266C578.459 305.188 577.932 305.044 577.43 304.834L578.254 305.187C577.986 305.069 577.728 304.929 577.482 304.77C577.358 304.688 576.975 304.395 577.475 304.781C577.996 305.183 577.542 304.816 577.435 304.71C577.346 304.621 577.266 304.524 577.179 304.434C576.775 304.015 577.634 305.153 577.361 304.665C577.214 304.42 577.081 304.167 576.96 303.909L577.304 304.736C577.147 304.342 577.037 303.932 576.975 303.513L577.093 304.432C577.03 303.911 577.033 303.384 577.101 302.864L576.972 303.781C577.06 303.201 577.217 302.633 577.44 302.089L577.087 302.912C577.243 302.547 577.426 302.194 577.636 301.857C577.733 301.683 577.846 301.518 577.975 301.366C577.998 301.373 577.386 302.059 577.71 301.713C577.795 301.622 577.875 301.527 577.961 301.437C578.098 301.293 578.245 301.162 578.39 301.026C578.874 300.571 577.713 301.467 578.271 301.108C578.675 300.845 579.1 300.617 579.542 300.424L578.714 300.768C579.454 300.469 580.229 300.266 581.021 300.164L580.101 300.282C581.092 300.174 582.093 300.191 583.079 300.334L582.161 300.206C583.41 300.402 584.63 300.752 585.793 301.249L584.969 300.896C587.448 301.975 589.64 303.57 591.827 305.133C593.941 306.68 596.168 308.063 598.492 309.272C603.49 311.79 608.877 313.451 614.426 314.185C622.385 315.205 630.473 314.212 637.947 311.298C645.422 308.383 652.044 303.64 657.206 297.505C657.836 296.846 658.201 295.979 658.233 295.069C658.231 294.154 657.873 293.276 657.234 292.621C655.972 291.451 653.578 291.109 652.344 292.593C651.175 294.002 649.919 295.337 648.584 296.59C647.961 297.174 647.321 297.74 646.665 298.288C646.29 298.601 645.91 298.907 645.525 299.207C645.343 299.349 644.776 299.727 645.647 299.117C645.447 299.257 645.255 299.41 645.058 299.553C642.143 301.675 638.986 303.444 635.655 304.825L636.482 304.482C632.907 305.956 629.156 306.96 625.322 307.468L626.242 307.35C622.298 307.845 618.305 307.817 614.369 307.265L615.287 307.394C611.352 306.831 607.505 305.761 603.845 304.211L604.669 304.564C601.137 302.979 597.788 301.016 594.681 298.71C593.064 297.499 591.357 296.413 589.576 295.46C587.501 294.386 585.251 293.689 582.931 293.401C578.583 292.865 574.139 294.533 571.725 298.274C569.504 301.718 569.504 306.662 572.571 309.618C575.729 312.663 580.538 312.664 584.291 310.793C587.905 308.99 590.091 305.214 591.634 301.652C595.106 293.634 598.185 285.428 601.058 277.179C603.9 269.018 606.483 260.773 608.805 252.443C609.092 251.411 609.376 250.379 609.655 249.345C610.127 247.603 609.096 245.511 607.265 245.083C606.382 244.851 605.444 244.97 604.648 245.416C603.852 245.861 603.26 246.598 602.998 247.471L602.998 247.471Z" fill="#F2F2F2"/>
<path d="M637.503 246.708L636.008 290.81L634.521 334.682L633.68 359.489C633.683 360.403 634.044 361.279 634.688 361.928C635.331 362.578 636.204 362.949 637.118 362.962C638.03 362.95 638.901 362.585 639.549 361.945C640.198 361.305 640.573 360.439 640.595 359.528L642.09 315.427L643.577 271.555L644.418 246.747C644.415 245.834 644.053 244.958 643.41 244.308C642.767 243.659 641.894 243.287 640.98 243.274C640.068 243.287 639.197 243.651 638.548 244.292C637.9 244.932 637.525 245.798 637.503 246.708V246.708Z" fill="#F2F2F2"/>
<path d="M510.778 331.836C509.392 337.85 506.124 343.267 501.447 347.301C501.104 347.594 500.761 347.877 500.404 348.156C499.542 348.229 498.685 348.304 497.835 348.381C497.129 348.441 496.433 348.506 495.741 348.567L495.616 348.58L495.533 347.824L495.2 344.765C493.853 342.541 493.025 340.043 492.776 337.456C492.528 334.868 492.865 332.258 493.763 329.819C494.999 326.548 497.219 323.664 499.402 320.803C502.417 316.851 505.348 312.944 505.482 308.105C506.943 309.995 508.156 312.065 509.089 314.264C508.194 314.678 507.389 315.263 506.719 315.986C506.528 316.192 506.338 316.481 506.465 316.731C506.575 316.943 506.851 316.995 507.091 317.024C507.667 317.088 508.247 317.151 508.823 317.214C509.284 317.267 509.745 317.316 510.205 317.369C510.753 319.201 511.12 321.081 511.303 322.984C511.597 325.944 511.42 328.931 510.778 331.836V331.836Z" fill="#F2F2F2"/>
<path d="M526.152 319.854C523.421 321.814 521.815 324.646 520.561 327.77C519.293 328.168 518.149 328.888 517.244 329.86C517.054 330.066 516.863 330.355 516.991 330.605C517.1 330.817 517.376 330.869 517.616 330.898C518.192 330.962 518.772 331.025 519.348 331.088C518.092 334.783 516.936 338.607 514.733 341.722C513.268 343.778 511.364 345.483 509.158 346.714C508.557 347.052 507.936 347.354 507.3 347.62C504.957 347.786 502.658 347.965 500.404 348.156C499.542 348.229 498.685 348.304 497.835 348.381C497.129 348.441 496.433 348.506 495.741 348.567C495.738 348.314 495.739 348.06 495.745 347.807C495.929 341.062 498.451 334.589 502.88 329.493C503.089 329.255 503.302 329.021 503.52 328.788C505.763 326.422 508.395 324.459 511.303 322.984C515.885 320.637 521.012 319.557 526.152 319.854V319.854Z" fill="#7DAD61"/>
<path d="M498.646 346.023L498.107 347.586L497.835 348.381C497.129 348.441 496.433 348.506 495.741 348.567L495.616 348.58C494.851 348.654 494.089 348.728 493.328 348.802C493.131 348.571 492.934 348.335 492.742 348.094C487.963 342.247 485.696 334.748 486.435 327.236C487.175 319.724 490.862 312.81 496.69 308.005C496.064 311.183 496.756 314.235 497.905 317.267C497.781 317.317 497.661 317.367 497.545 317.422C496.65 317.836 495.845 318.421 495.175 319.144C494.985 319.35 494.794 319.639 494.922 319.889C495.031 320.101 495.307 320.153 495.547 320.182C496.123 320.245 496.703 320.308 497.279 320.372C497.74 320.425 498.201 320.474 498.662 320.527C498.878 320.551 499.095 320.575 499.311 320.6C499.343 320.669 499.37 320.733 499.402 320.803C500.7 323.656 502.099 326.523 502.88 329.493C503.076 330.238 503.228 330.994 503.337 331.757C503.678 334.334 503.433 336.955 502.621 339.424C501.809 341.894 500.45 344.149 498.646 346.023V346.023Z" fill="#7DAD61"/>
<path d="M545.431 279.502C541.506 271.747 535.394 265.207 528.189 260.385C520.961 255.569 512.653 252.615 504.005 251.784C502.871 251.675 501.734 251.608 500.594 251.584C499.248 251.556 478.955 257.278 472.141 262.005C465.332 266.674 459.716 272.877 455.749 280.113C451.788 287.389 449.813 295.578 450.024 303.857C450.313 312.186 452.59 320.326 456.668 327.598C460.689 334.846 466.422 341.003 473.368 345.534C480.414 350.08 487.449 362.069 495.795 362.538C504.205 363.011 513.862 351.794 521.553 348.415C529.244 345.008 535.908 339.647 540.878 332.867C545.709 326.222 548.853 318.505 550.042 310.379C551.275 302.06 550.771 293.469 547.969 285.495C547.25 283.446 546.402 281.444 545.431 279.502C544.619 277.883 542.218 277.275 540.707 278.236C539.929 278.709 539.363 279.463 539.127 280.341C538.891 281.22 539.003 282.156 539.44 282.954C539.916 283.904 540.359 284.871 540.767 285.852L540.423 285.025C541.969 288.798 543.013 292.758 543.527 296.802L543.409 295.884C543.955 300.271 543.919 304.712 543.303 309.091L543.432 308.173C542.809 312.551 541.614 316.829 539.877 320.896L540.23 320.073C539.336 322.149 538.297 324.158 537.12 326.087C536.523 327.062 535.891 328.013 535.222 328.941C534.929 329.349 534.626 329.749 534.322 330.148C533.924 330.668 534.864 329.468 534.453 329.978C534.383 330.065 534.313 330.153 534.243 330.239C534.032 330.5 533.818 330.757 533.602 331.013C532.154 332.718 530.577 334.307 528.883 335.767C528.461 336.131 528.032 336.486 527.596 336.834C527.379 337.007 527.164 337.187 526.938 337.348C526.947 337.342 527.669 336.8 527.242 337.114C527.107 337.213 526.974 337.314 526.839 337.412C525.941 338.069 525.019 338.692 524.074 339.281C521.898 340.633 519.616 341.808 517.251 342.794L518.079 342.45C514 344.138 509.715 345.283 505.337 345.855L506.257 345.737C501.88 346.302 497.448 346.285 493.076 345.686L493.995 345.814C490.022 345.258 486.138 344.186 482.443 342.625L483.267 342.977C481.127 342.061 479.065 340.972 477.1 339.723C476.128 339.104 475.181 338.446 474.261 337.751C474.129 337.652 473.999 337.552 473.868 337.452C473.448 337.131 474.17 337.688 474.176 337.692C473.931 337.515 473.696 337.325 473.471 337.124C473.027 336.758 472.589 336.384 472.158 336.001C470.435 334.469 468.828 332.811 467.349 331.043C466.978 330.601 466.616 330.152 466.262 329.696C466.108 329.499 465.829 329.1 466.447 329.941C466.365 329.83 466.281 329.722 466.199 329.612C466.002 329.347 465.807 329.081 465.615 328.813C464.944 327.873 464.305 326.911 463.701 325.926C462.335 323.696 461.145 321.363 460.142 318.949L460.486 319.775C458.845 315.812 457.73 311.651 457.172 307.399L457.29 308.318C456.787 304.398 456.802 300.429 457.335 296.513L457.206 297.431C457.751 293.639 458.795 289.935 460.309 286.416L459.956 287.239C460.908 285.035 462.029 282.909 463.309 280.877C463.95 279.861 464.628 278.869 465.344 277.903C465.507 277.683 465.671 277.465 465.838 277.248C465.988 277.052 466.402 276.564 465.696 277.426C465.765 277.342 465.832 277.255 465.9 277.169C466.293 276.678 466.695 276.194 467.107 275.719C468.665 273.918 470.351 272.231 472.153 270.673C472.608 270.279 473.071 269.893 473.54 269.516C473.753 269.344 473.968 269.175 474.184 269.007C474.271 268.94 474.358 268.874 474.444 268.807C473.519 269.533 474.187 269.004 474.397 268.849C475.365 268.134 476.357 267.454 477.376 266.812C479.64 265.384 482.019 264.148 484.49 263.118L483.663 263.462C487.249 261.982 503.119 258.53 506 258.933L505.081 258.805C509.315 259.42 513.45 260.586 517.38 262.274L516.556 261.921C518.548 262.779 520.483 263.764 522.349 264.868C523.281 265.421 524.195 266.004 525.09 266.617C525.514 266.906 525.933 267.203 526.347 267.505C526.555 267.657 526.761 267.81 526.966 267.964C527.079 268.05 527.192 268.137 527.306 268.223C527.783 268.585 526.649 267.7 527.149 268.1C528.822 269.428 530.411 270.86 531.904 272.387C532.638 273.142 533.346 273.921 534.029 274.723C534.379 275.134 534.722 275.552 535.058 275.975C535.224 276.186 535.792 276.947 535.096 276.014C535.266 276.242 535.438 276.469 535.606 276.698C537.052 278.676 538.334 280.768 539.44 282.954C540.257 284.569 542.648 285.183 544.163 284.22C544.942 283.747 545.508 282.993 545.744 282.114C545.98 281.236 545.868 280.3 545.431 279.502Z" fill="#F2F2F2"/>
<path d="M504.822 335.631C504.465 335.645 504.112 335.55 503.811 335.357C503.511 335.165 503.276 334.884 503.14 334.554C503.004 334.224 502.973 333.861 503.051 333.512C503.129 333.164 503.312 332.848 503.576 332.607C503.621 332.433 503.653 332.308 503.698 332.134C503.683 332.096 503.667 332.058 503.652 332.02C502.069 328.19 491.771 338.783 491.308 342.371C491.105 343.957 491.178 345.567 491.524 347.128C488.249 339.885 486.572 332.023 486.606 324.075C486.617 322.081 486.739 320.089 486.972 318.108C487.165 316.484 487.429 314.872 487.764 313.272C489.59 304.592 493.452 296.468 499.033 289.568C502.201 289.763 504.981 289.297 505.284 283.164C505.338 282.073 506.153 281.133 506.338 280.059C506.035 280.097 505.728 280.12 505.425 280.138C505.331 280.142 505.231 280.147 505.137 280.151L505.102 280.153C504.769 280.166 504.44 280.082 504.153 279.913C503.867 279.743 503.636 279.495 503.488 279.197C503.34 278.899 503.281 278.565 503.319 278.235C503.356 277.905 503.488 277.592 503.7 277.335C503.831 277.175 503.963 277.016 504.094 276.856C504.294 276.609 504.499 276.368 504.699 276.121C504.722 276.098 504.743 276.073 504.764 276.047C504.993 275.766 505.223 275.49 505.453 275.209C505.04 274.561 504.483 274.017 503.825 273.62C501.546 272.269 498.387 273.178 496.723 275.234C495.055 277.29 494.726 280.186 495.287 282.77C495.84 284.97 496.764 287.059 498.02 288.948C497.895 289.106 497.765 289.259 497.64 289.417C495.357 292.315 493.364 295.429 491.689 298.716C492.178 295.063 486.523 281.83 484.324 279.021C481.681 275.647 476.215 277.082 475.722 281.337C475.717 281.378 475.713 281.419 475.708 281.46C476.036 281.648 476.357 281.846 476.671 282.056C477.066 282.323 477.37 282.702 477.545 283.145C477.72 283.587 477.757 284.072 477.652 284.536C477.546 285 477.303 285.421 476.953 285.744C476.604 286.067 476.165 286.277 475.694 286.347L475.646 286.354C471.205 292.612 485.234 309.043 488.79 305.392C487.1 310.092 486.028 314.992 485.603 319.968C485.361 322.903 485.358 325.854 485.592 328.79L485.578 328.686C484.829 322.289 471.408 312.709 467.469 313.478C465.2 313.921 462.968 313.805 463.299 316.091C463.304 316.127 463.309 316.164 463.315 316.2C463.924 316.452 464.517 316.742 465.091 317.067C465.419 317.255 465.74 317.453 466.054 317.663C466.448 317.93 466.753 318.309 466.928 318.751C467.103 319.194 467.14 319.679 467.034 320.142C466.929 320.606 466.685 321.027 466.336 321.351C465.986 321.674 465.547 321.884 465.076 321.954L465.028 321.961C464.993 321.966 464.964 321.971 464.929 321.976C462.884 328.856 477.693 340.062 486.753 336.574L486.758 336.574C487.632 340.468 488.909 344.26 490.568 347.89L504.405 347.969C504.456 347.816 504.501 347.657 504.547 347.504C503.266 347.577 501.98 347.493 500.719 347.254C501.753 346.002 502.787 344.74 503.821 343.487C503.844 343.464 503.865 343.439 503.886 343.413C504.41 342.772 504.939 342.136 505.464 341.495L505.464 341.495C505.503 339.521 505.287 337.55 504.822 335.631L504.822 335.631ZM489.153 304.408L489.16 304.398L489.153 304.418L489.153 304.408ZM485.931 331.987L485.814 331.719C485.82 331.526 485.821 331.333 485.817 331.135C485.817 331.08 485.808 331.026 485.808 330.971C485.851 331.313 485.889 331.655 485.936 331.997L485.931 331.987Z" fill="#F2F2F2"/>
<path d="M345.345 306.953C348.732 306.972 351.494 304.245 351.513 300.862C351.532 297.479 348.802 294.721 345.415 294.701C342.027 294.682 339.266 297.409 339.247 300.792C339.228 304.175 341.958 306.933 345.345 306.953Z" fill="#F2F2F2"/>
<path d="M410.048 361.591C412.848 361.607 415.132 359.352 415.148 356.555C415.164 353.758 412.906 351.477 410.105 351.461C407.304 351.445 405.021 353.7 405.005 356.497C404.989 359.295 407.247 361.575 410.048 361.591Z" fill="#F2F2F2"/>
<path d="M641.02 362.901C643.821 362.917 646.104 360.662 646.12 357.865C646.136 355.068 643.878 352.787 641.078 352.771C638.277 352.755 635.994 355.01 635.978 357.808C635.962 360.605 638.219 362.885 641.02 362.901Z" fill="#F2F2F2"/>
<path d="M653.833 298.508C656.634 298.524 658.918 296.269 658.933 293.471C658.949 290.674 656.692 288.393 653.891 288.378C651.09 288.362 648.807 290.616 648.791 293.414C648.775 296.211 651.033 298.492 653.833 298.508Z" fill="#F2F2F2"/>
<path d="M639.347 251.457C642.148 251.473 644.431 249.218 644.447 246.421C644.463 243.623 642.205 241.343 639.405 241.327C636.604 241.311 634.32 243.566 634.305 246.363C634.289 249.161 636.546 251.441 639.347 251.457Z" fill="#F2F2F2"/>
<path d="M427.5 292.159C427.49 293.452 426.982 294.693 426.081 295.623C425.181 296.553 423.957 297.102 422.662 297.155C421.368 297.209 420.102 296.764 419.128 295.912C418.153 295.06 417.543 293.866 417.425 292.578C417.307 291.289 417.69 290.005 418.494 288.99C419.297 287.975 420.461 287.308 421.743 287.126C423.026 286.945 424.329 287.263 425.384 288.014C426.438 288.765 427.163 289.893 427.409 291.163C427.472 291.491 427.502 291.825 427.5 292.159V292.159Z" fill="#F2F2F2"/>
<path d="M529.079 265.567C531.88 265.583 534.163 263.328 534.179 260.531C534.195 257.733 531.937 255.453 529.136 255.437C526.336 255.421 524.052 257.676 524.037 260.473C524.021 263.27 526.278 265.551 529.079 265.567Z" fill="#F2F2F2"/>
<path d="M478.856 260.217C478.846 261.511 478.338 262.751 477.437 263.681C476.537 264.611 475.313 265.16 474.019 265.214C472.724 265.267 471.459 264.822 470.484 263.97C469.509 263.118 468.9 261.924 468.782 260.636C468.664 259.347 469.046 258.063 469.85 257.048C470.654 256.033 471.817 255.366 473.1 255.185C474.382 255.003 475.686 255.321 476.74 256.072C477.795 256.824 478.52 257.951 478.765 259.222C478.828 259.55 478.859 259.883 478.856 260.217V260.217Z" fill="#F2F2F2"/>
<path d="M413.475 245.111C413.464 246.404 412.956 247.645 412.056 248.575C411.155 249.505 409.931 250.054 408.637 250.108C407.343 250.161 406.077 249.716 405.102 248.864C404.128 248.012 403.518 246.818 403.4 245.53C403.282 244.241 403.664 242.957 404.468 241.942C405.272 240.927 406.436 240.26 407.718 240.079C409.001 239.897 410.304 240.215 411.359 240.966C412.413 241.718 413.138 242.845 413.383 244.116C413.447 244.443 413.477 244.777 413.475 245.111V245.111Z" fill="#F2F2F2"/>
<path d="M581.851 309.151C584.652 309.167 586.935 306.912 586.951 304.114C586.967 301.317 584.709 299.037 581.909 299.021C579.108 299.005 576.825 301.26 576.809 304.057C576.793 306.854 579.05 309.135 581.851 309.151Z" fill="#F2F2F2"/>
<path d="M502.355 262.652C506.429 262.676 509.75 259.396 509.774 255.327C509.797 251.258 506.513 247.941 502.439 247.918C498.365 247.895 495.044 251.174 495.021 255.243C494.998 259.312 498.281 262.629 502.355 262.652Z" fill="#F2F2F2"/>
<path opacity="0.05" d="M492.898 541.796C630.36 541.796 741.796 430.36 741.796 292.898C741.796 155.435 630.36 44 492.898 44C355.435 44 244 155.435 244 292.898C244 430.36 355.435 541.796 492.898 541.796Z" fill="black"/>
</g>
<defs>
<clipPath id="clip0_0_1">
<rect width="797.5" height="834.5" fill="white"/>
</clipPath>
</defs>
</svg>
